<?xml version="1.0" encoding="utf-8"?>
<!-- Generator: Adobe Illustrator 20.1.0, SVG Export Plug-In . SVG Version: 6.00 Build 0)  -->
<svg version="1.1" xmlns="http://www.w3.org/2000/svg" xmlns:xlink="http://www.w3.org/1999/xlink" x="0px" y="0px"
	 viewBox="0 0 200 100" style="enable-background:new 0 0 200 100;" xml:space="preserve">
<style type="text/css">
	.st0{display:none;}
	.st1{display:inline;fill:none;}
	.st2{display:inline;}
	.st3{font-family:'MyriadPro-Bold';}
	.st4{font-size:33px;}
	.st5{fill:#94509F;}
	.st6{fill:#F37E20;}
	.st7{fill:none;}
	.st8{fill:none;stroke:#000000;stroke-miterlimit:10;}
	.st9{fill:none;stroke:#F37E20;stroke-miterlimit:10;}
</style>
<g id="Warstwa_1" class="st0">
	<rect x="9.6" y="8" class="st1" width="181.9" height="82.7"/>
	<text transform="matrix(1.23 0 0 1.04 41.166 45.4058)" class="st2"><tspan x="0" y="0" class="st3 st4">TERRA </tspan><tspan x="-8.6" y="26" class="st3 st4">MENTIS</tspan></text>
</g>
<g id="Warstwa_2">
	<path class="st5" d="M56.2,28.9l5.2-1.2c0.5-0.1,1.1,0.2,1.2,0.7l3.8,16.3c0.1,0.5,0.7,0.9,1.2,0.7l4.1-0.9
		c0.5-0.1,0.9-0.7,0.7-1.2L68.7,27c-0.1-0.5,0.2-1.1,0.7-1.2l5.3-1.3c0.5-0.1,0.9-0.7,0.7-1.2L75,21c-0.1-0.5-0.7-0.9-1.2-0.7
		c-7,0.4-11.3,2.9-18.5,4.3c-0.5,0.1-0.9,0.7-0.7,1.2l0.5,2.3C55.2,28.7,55.7,29,56.2,28.9z"/>
	<path class="st5" d="M94.4,41.7L94.1,46c-5.9,0-11.7-0.4-17.4-1.2l1.6-23.1c5.5-0.6,11.1,0,16.9,1.2L95,27.2l-10.7-0.8l-0.3,4.8
		c2.7,0,6.2,0.4,10.1,0.7l-0.3,4.2l-10.1-0.7l-0.4,5.4C86.3,40.7,90,40.9,94.4,41.7z"/>
	<path class="st5" d="M116.4,37.5c-0.8-1.7-2-2.6-2.9-2.8l0-0.1c3.5-1.1,5.1-3.2,5-6.2c-0.4-4.3-4.6-6.7-9.8-7.2
		c-2.9-0.2-6.1,0.8-9.6,1c0,0-0.8,22.8-0.8,22.8l6.1,0.2l0.3-9.1l1.9,0.1c2.6,0.3,3.7,1.1,4.4,4.8c0.5,2,1.8,3,2.2,3.8
		c2.3,0.8,4.6,1.1,7.1,1.3C119.4,43.3,117.3,39.3,116.4,37.5z M104.9,32.4l0.2-6.4c4.2-0.4,7,0.3,7.2,3.1
		C112.4,32.2,109.2,32.9,104.9,32.4z"/>
	<path class="st5" d="M139.8,38.4c-0.6-1.8-1.6-2.8-2.5-3.1l0-0.1c3.6-0.7,5.5-2.6,5.8-5.6c0.1-4.3-3.5-6.9-8.6-8
		c-2.9-0.6-6.4-0.2-9.9-0.4c0,0-3.6,22.6-3.5,22.5l6.1,1l1.4-9l1.9,0.3c2.5,0.6,3.5,1.5,3.8,5.3c0.2,2,0.5,3.8,0.9,4.7l6.2,1
		C140.5,43.9,140.5,40.2,139.8,38.4z M129,31.9l1-6.3c4.2,0.1,6.9,1.2,6.8,3.9C136.4,32.6,133.3,32.9,129,31.9z"/>
	<path class="st5" d="M158.6,22.1c-2.7-0.8-5.4-0.9-8.2,0.3l-7.5,23.4c2.3,0.4,4.5,0.4,6.5-0.2l1.7-6c2.4,1,5,0.8,7.7-0.3l2.4,5.9
		c1.7,0.6,4.3,0.1,6.8-0.2L158.6,22.1z M151.7,35.8l2.7-9.7l3.6,9.5C155.7,36.8,153.6,36.8,151.7,35.8z"/>
	<path class="st6" d="M85.3,67.5l0.2,4.3c-7.2,0-13.5,0.1-17.4,0.6c-0.6-1.9-0.6-13.9-0.8-23.1c4.5-0.5,10.3-0.7,16.9-0.6
		c0.3,1.9,0.6,3.6,0.2,4.4l-10.8,0.4l0.2,4.8l10.1-0.4c0.3,1,0.4,2.3,0.1,4.2l-10.1,0.4c-0.2,2.1-0.1,4,0.2,5.4L85.3,67.5z"/>
	<path class="st6" d="M32.8,74c1.4,0.4,3.1-0.5,5.8-0.2L39,55.5c1.6,7.1,3.6,12.8,6.1,17.6c1.3,0.1,2.9,0,4.9-0.2
		c2.1-6.5,4-12.5,5.7-18.1L57,73.1c2,0.1,4-0.4,6.2-0.2L60.7,50c-3-0.2-5.8-0.1-8.2,0.4c-2.1,6.1-3.8,11.5-4.9,16
		c-1.4-5-3.3-10.3-5.6-15.8c-3.8,0-7.4,0-8.2,0.3L32.8,74z"/>
	<path class="st6" d="M88.4,71.4c1.5-0.1,3.2,0,5.6,0.5c0.8-5.3,1.1-11,1.3-17c2.1,5.1,5.4,11.4,9.1,18c2-0.1,4,0,6.4,0.5
		c0.8-5.3,1.5-13.1,2.1-23l-5.7-0.6c-0.6,6.1-1,12.1-0.9,16.5c-2.5-5.8-5.4-11.7-8.7-17.3c-2.8-0.5-5.3-0.8-7.3-0.6L88.4,71.4z"/>
	<path class="st7" d="M130.6,51.3"/>
	<path class="st6" d="M115,54.5l7.3-0.5c0,5.7,0.5,12,1.3,18.7l6.2-0.4c-0.8-5.4-1.2-11.7-1.3-18.7l7.4-0.6
		c-0.5-0.9-0.6-2.3-0.3-4.4c-10.2-0.5-13.2,1.9-20.9,1.5C114.5,52.1,114.5,53.6,115,54.5z"/>
	<path class="st6" d="M140.4,49.1l6.2,0.4c-1.5,9.6-2.7,18.4-1.6,23.1l-6.2-0.4C138.6,66.9,139.2,58.6,140.4,49.1z"/>
	<path class="st6" d="M167.4,55.6l2.1-3.9c-7.7-3.9-15.4-3.6-17.9,1.8c-2.3,8.4,11.7,9,9.8,13.3c-1.3,2.5-5.4,1.7-11.1-1.2l-2,3.9
		c5.9,3.7,16.9,5.1,19.3-1.4c2.8-8.4-11.4-9.3-9.9-13.3C158.9,52.4,163.4,53.4,167.4,55.6z"/>
	<path class="st5" d="M51,41.1c-0.4-1-0.8-1.9-1.3-2.3l-0.1-1.1c0.7-0.4,1.3-0.9,1.9-1.6c0.4-1.2,0.7-2.6,0.8-4.4
		c0.7-1.2,1.1-2.5,1.2-3.9c-0.1-3.6-1.2-5.5-2.5-7l0.2-0.5l-0.7-0.1l0.4-0.7L50,19.3l0.1-0.7h-1c-1-1.7-3.3-2.6-5.9-3.3l-2.8,0.1
		c-0.3,0.6-0.6,0.8-0.9,0.8l-2.7,0.4L36.7,17c-3.6,1-6.8,4.7-7.7,7.6l0.5,0.4l-0.2,1l0.5,0.1l0.9,3.3c1.2,0.7,1.5,1.7,1.2,2.9
		l-0.9,1.1c-0.5,1.6,0.4,1.7,1.4,1.8L32,36.9c0.2,0.5,0.6,0.6,1.2,0.5l-0.1,0.6c0.3,0.4,0.5,0.5,0.8,0.5l0.2,1.9
		c1.4,1.4,2.2,1.1,3,0.6l1.9-0.8c1,0,1,0.9,0.7,2.1L39.4,44c-1.8,1.8-3.7,3.2-4.8,4.7H57l0-2.4C55.2,44,53.2,42.2,51,41.1z
		 M48.4,25.3c0,0.9-0.6,1.7-1.4,2.5l-3.8,0.6l-0.3-1.2c0-0.5-0.9-0.8-2-1c-0.8,0.5-1.7,0.5-2.6,0.2c-3,1-3.9,0.2-4.4-0.9
		c-0.3-0.9-0.1-1.9,1-2.7c0.1-1.2,1-1.9,2.4-2.1c0.4-0.9,1.5-1.1,2.8-1c0.8-1,1.7-1.1,2.9-0.4c1.8-0.6,2.8,0,3.5,1
		c1-0.2,1.7,0.6,2,2.5C49.2,23.5,49.2,24.4,48.4,25.3z"/>
	<path class="st8" d="M57,48.8"/>
	<path class="st8" d="M34.5,48.8"/>
	<path class="st9" d="M35.6,25.5c0.1-0.6,0.8-1,2.3-1.2c0.8-0.2,1.2-0.9,1.4-1.8c0.7-0.3,1.4-0.6,2-0.6c0.5,0.2,0.9,0.4,1,0.8
		c0.5-0.1,1-0.2,1.5-0.1c1,0,1.6,0.4,1.9,0.9c0.5,0.8,0.3,1.4-0.1,2.1c-1,0.7-1.4,1.2-1.3,1.5l0.2,1.1"/>
	<path class="st9" d="M46.9,26.1c-0.5-0.5-0.7-0.6-1.3-0.6"/>
	<path class="st8" d="M49.8,27.5"/>
	<path class="st8" d="M45.7,23.5"/>
	<path class="st8" d="M43.8,21.4"/>
	<path class="st9" d="M42.4,25l-0.6-1.2c0-0.4,0.1-0.8,0.4-1.2"/>
	<path class="st9" d="M40.1,24.6c0.5-0.5,1-0.7,1.7-0.7"/>
	<path class="st9" d="M41.3,20.8c0.1,0.5,0.1,0.9,0,1.1"/>
	<path class="st9" d="M38.1,21.8c0.4-0.1,0.8,0.1,1.2,0.6"/>
	<path class="st9" d="M36.3,23.3c0.7,0.2,1.3,0.5,1.6,1"/>
	<path class="st9" d="M43.8,21.4c-0.4,0.4-0.3,0.8-0.1,1.1"/>
	<path class="st9" d="M47.1,22.5c-0.5,0.6-1,0.9-1.5,0.9"/>
</g>
</svg>
